<svg xmlns="http://www.w3.org/2000/svg" width="24" height="24" viewBox="0 0 24 24">
    <g fill="none">
        <path fill="#000" d="M12 24C5.373 24 0 18.627 0 12S5.373 0 12 0s12 5.373 12 12c-.007 6.624-5.376 11.993-12 12zm0-22.468C7.763 1.532 3.943 4.085 2.322 8c-1.62 3.914-.723 8.42 2.274 11.416 2.997 2.995 7.503 3.89 11.417 2.266 3.914-1.623 6.464-5.445 6.462-9.682C22.47 6.218 17.782 1.532 12 1.532z"/>
        <path fill="#CE0033" d="M13.235 9.793c0-.446.046-.685.733-.685h.917v-1.66h-1.47c-1.763 0-2.384.83-2.384 2.227v1.079h-1.1v1.66h1.1v4.965h2.2v-4.965h1.47l.196-1.66h-1.665l.003-.96z"/>
    </g>
</svg>
