<svg xmlns="http://www.w3.org/2000/svg" width="24" height="24" viewBox="0 0 24 24">
    <g fill="none">
        <path fill="#000" d="M12 23.954C5.398 23.954.046 18.602.046 12S5.398.046 12 .046 23.954 5.398 23.954 12C23.947 18.6 18.6 23.947 12 23.954zm0-22.382c-4.221 0-8.026 2.543-9.641 6.443-1.615 3.9-.72 8.389 2.265 11.372 2.985 2.984 7.475 3.875 11.374 2.258 3.899-1.617 6.44-5.424 6.437-9.645C22.43 6.24 17.76 1.572 12 1.572z"/>
        <path fill="#CE0033" d="M15.357 6.404H8.643c-1.237 0-2.239 1.002-2.239 2.239v6.714c0 1.237 1.002 2.239 2.239 2.239h6.714c1.237 0 2.239-1.002 2.239-2.239V8.643c0-1.237-1.002-2.239-2.239-2.239m-1.119 1.683h1.675v1.679h-1.675V8.087zM12 9.762c1.236 0 2.238 1.002 2.238 2.238S13.236 14.238 12 14.238 9.762 13.236 9.762 12 10.764 9.762 12 9.762m4.477 5.595c-.001.618-.502 1.119-1.12 1.12H8.643c-.618-.001-1.119-.502-1.12-1.12v-3.913h1.174c-.034.185-.052.372-.056.56 0 1.854 1.503 3.357 3.358 3.357 1.854 0 3.357-1.503 3.357-3.357-.003-.188-.021-.375-.056-.56h1.174l.003 3.913z"/>
    </g>
</svg>
