<svg xmlns="http://www.w3.org/2000/svg" width="24" height="24" viewBox="0 0 24 24">
    <g fill="none">
        <path fill="#000" d="M12 24C5.373 24 0 18.627 0 12S5.373 0 12 0s12 5.373 12 12c-.007 6.624-5.376 11.993-12 12zm0-22.468C7.763 1.532 3.943 4.085 2.322 8c-1.62 3.914-.723 8.42 2.274 11.416 2.997 2.995 7.503 3.89 11.417 2.266 3.914-1.623 6.464-5.445 6.462-9.682C22.47 6.218 17.782 1.532 12 1.532z"/>
        <path fill="#CE0033" d="M8.625 7.448c-.474-.002-.903.274-1.086.7-.183.426-.084.918.25 1.246.334.327.838.425 1.276.249.437-.177.723-.593.722-1.055.001-.302-.121-.591-.34-.805-.217-.214-.513-.334-.822-.335m-1.163 9.104h2.325v-6.267H7.462v6.267zm7.795-6.267c-1.729 0-1.961 1.015-1.961 1.015v-1.007h-2.334v6.259h2.334v-3.414s0-1.146.991-1.146c.558 0 .759.508.759 1.146v3.414h2.333v-3.414c0-1.781-.794-2.853-2.125-2.853"/>
    </g>
</svg>
