<svg xmlns="http://www.w3.org/2000/svg" width="24" height="24" viewBox="0 0 24 24">
    <g fill="none">
        <path fill="#000" d="M12 24C5.373 24 0 18.627 0 12S5.373 0 12 0s12 5.373 12 12c-.007 6.624-5.376 11.993-12 12zm0-22.468C7.763 1.532 3.943 4.085 2.322 8c-1.62 3.914-.723 8.42 2.274 11.416 2.997 2.995 7.503 3.89 11.417 2.266 3.914-1.623 6.464-5.445 6.462-9.682C22.47 6.218 17.782 1.532 12 1.532z"/>
        <path fill="#CE0033" d="M11.504 10.028h.233c.511.002.927-.394.932-.885v-1.46c-.005-.491-.421-.887-.932-.885h-.234c-.511-.002-.927.394-.931.886v1.45c.004.491.42.887.93.886m-.232-2.397c0-.186.157-.337.35-.337.193 0 .35.151.35.337v1.561c0 .186-.157.337-.35.337-.193 0-.35-.15-.35-.337V7.623zm2.571 2.405c.466 0 .875-.39.875-.39v.335h.699V6.798h-.699V9.25s-.234.279-.467.279-.233-.167-.233-.167V6.798h-.7v2.784c.031.255.258.447.525.445m-5.07-.055h.815V8.245l.933-2.452h-.758L9.18 7.41l-.583-1.616h-.815l.99 2.452v1.727zm4.603 3.692c-.136.007-.262.069-.35.17v2.248c.09.096.217.15.35.15.35 0 .35-.38.35-.38V14.04s-.058-.38-.35-.38m2.91-2.94s-2.137-.106-4.284-.106-4.283.107-4.283.107c-.966 0-1.749.718-1.749 1.604-.109.69-.167 1.387-.175 2.086.008.698.067 1.395.175 2.085 0 .886.79 1.603 1.75 1.603 0 0 2.104.108 4.282.108 2.104 0 4.284-.108 4.284-.108.965 0 1.748-.717 1.748-1.603.108-.69.166-1.387.175-2.085-.007-.699-.066-1.395-.175-2.086 0-.886-.79-1.604-1.748-1.604m-6.819 1.822h-.874v4.224h-.816v-4.224h-.874v-.696h2.564v.696zm2.214 4.224h-.698v-.32s-.408.38-.875.38c-.262.002-.486-.18-.526-.43v-3.315h.7v3.101s0 .161.232.161c.233 0 .467-.267.467-.267v-3h.699l.001 3.69zm2.74-.802s0 .856-.64.856c-.298.004-.58-.129-.76-.357v.303h-.756v-4.92h.756v1.596c.117-.118.402-.366.76-.366.465 0 .64.38.64.857v2.03zm2.738-1.978v1.069H15.7v.802s0 .38.35.38.35-.38.35-.38v-.38h.757v.59s-.115.748-1.052.748c-.936 0-1.107-.749-1.107-.749v-2.08s0-.91 1.107-.91c1.108 0 1.052.91 1.052.91m-1.107-.322c-.35 0-.35.38-.35.38v.472h.7v-.48s0-.38-.35-.38"/>
    </g>
</svg>
